<?xml version="1.0" encoding="UTF-8" standalone="no"?>
<!DOCTYPE svg PUBLIC "-//W3C//DTD SVG 1.1//EN"
 "http://www.w3.org/Graphics/SVG/1.1/DTD/svg11.dtd">
<!-- Generated by graphviz version 2.36.0 (20140111.2315)
 -->
<!-- Title: gift_exchange Pages: 1 -->
<svg width="348pt" height="110pt"
 viewBox="0.00 0.00 347.99 110.00" xmlns="http://www.w3.org/2000/svg" xmlns:xlink="http://www.w3.org/1999/xlink">
<g id="graph0" class="graph" transform="scale(1 1) rotate(0) translate(4 106)">
<title>gift_exchange</title>
<polygon fill="white" stroke="none" points="-4,4 -4,-106 343.992,-106 343.992,4 -4,4"/>
<!-- Rose -->
<g id="node1" class="node"><title>Rose</title>
<ellipse fill="none" stroke="black" cx="28.5975" cy="-18" rx="28.6953" ry="18"/>
<text text-anchor="middle" x="28.5975" y="-14.3" font-family="Times,serif" font-size="14.00">Rose</text>
</g>
<!-- Charli -->
<g id="node2" class="node"><title>Charli</title>
<ellipse fill="none" stroke="black" cx="161.692" cy="-18" rx="32.4942" ry="18"/>
<text text-anchor="middle" x="161.692" y="-14.3" font-family="Times,serif" font-size="14.00">Charli</text>
</g>
<!-- Rose&#45;&gt;Charli -->
<g id="edge1" class="edge"><title>Rose&#45;&gt;Charli</title>
<path fill="none" stroke="black" d="M55.8523,-23.5708C74.4595,-24.8452 99.4519,-25.0867 120.478,-24.295"/>
<polygon fill="black" stroke="black" points="120.924,-27.7778 130.746,-23.8053 120.59,-20.7858 120.924,-27.7778"/>
</g>
<!-- Charli&#45;&gt;Rose -->
<g id="edge2" class="edge"><title>Charli&#45;&gt;Rose</title>
<path fill="none" stroke="black" d="M130.823,-12.1992C111.597,-11.0646 86.7312,-10.9472 66.3376,-11.8468"/>
<polygon fill="black" stroke="black" points="65.9262,-8.36411 56.1344,-12.41 66.3121,-15.3535 65.9262,-8.36411"/>
</g>
<!-- Nona -->
<g id="node3" class="node"><title>Nona</title>
<ellipse fill="none" stroke="black" cx="184.095" cy="-84" rx="29.795" ry="18"/>
<text text-anchor="middle" x="184.095" y="-80.3" font-family="Times,serif" font-size="14.00">Nona</text>
</g>
<!-- Jack -->
<g id="node4" class="node"><title>Jack</title>
<ellipse fill="none" stroke="black" cx="312.992" cy="-84" rx="27" ry="18"/>
<text text-anchor="middle" x="312.992" y="-80.3" font-family="Times,serif" font-size="14.00">Jack</text>
</g>
<!-- Nona&#45;&gt;Jack -->
<g id="edge3" class="edge"><title>Nona&#45;&gt;Jack</title>
<path fill="none" stroke="black" d="M212.701,-89.72C231.649,-90.9397 256.657,-91.0761 276.96,-90.1293"/>
<polygon fill="black" stroke="black" points="277.314,-93.6147 287.092,-89.5354 276.904,-86.6267 277.314,-93.6147"/>
</g>
<!-- Jack&#45;&gt;Nona -->
<g id="edge4" class="edge"><title>Jack&#45;&gt;Nona</title>
<path fill="none" stroke="black" d="M287.217,-78.4737C268.74,-77.1318 243.532,-76.8935 222.664,-77.759"/>
<polygon fill="black" stroke="black" points="222.315,-74.2724 212.513,-78.2922 222.682,-81.2628 222.315,-74.2724"/>
</g>
</g>
</svg>
