<?xml version="1.0" encoding="UTF-8" standalone="no"?>
<!DOCTYPE svg PUBLIC "-//W3C//DTD SVG 1.1//EN"
 "http://www.w3.org/Graphics/SVG/1.1/DTD/svg11.dtd">
<!-- Generated by graphviz version 2.38.0 (20140413.2041)
 -->
<!-- Title: gift_exchange Pages: 1 -->
<svg width="245pt" height="218pt"
 viewBox="0.00 0.00 244.82 218.43" xmlns="http://www.w3.org/2000/svg" xmlns:xlink="http://www.w3.org/1999/xlink">
<g id="graph0" class="graph" transform="scale(1 1) rotate(0) translate(4 214.426)">
<title>gift_exchange</title>
<polygon fill="white" stroke="none" points="-4,4 -4,-214.426 240.821,-214.426 240.821,4 -4,4"/>
<!-- Rose -->
<g id="node1" class="node"><title>Rose</title>
<ellipse fill="none" stroke="black" cx="117.111" cy="-18" rx="28.6953" ry="18"/>
<text text-anchor="middle" x="117.111" y="-14.3" font-family="Times,serif" font-size="14.00">Rose</text>
</g>
<!-- Nona -->
<g id="node2" class="node"><title>Nona</title>
<ellipse fill="none" stroke="black" cx="29.8973" cy="-105.213" rx="29.795" ry="18"/>
<text text-anchor="middle" x="29.8973" y="-101.513" font-family="Times,serif" font-size="14.00">Nona</text>
</g>
<!-- Rose&#45;&gt;Nona -->
<g id="edge1" class="edge"><title>Rose&#45;&gt;Nona</title>
<path fill="none" stroke="black" d="M101.519,-33.592C87.8765,-47.2341 67.8906,-67.22 52.4953,-82.6152"/>
<polygon fill="black" stroke="black" points="49.9506,-80.2103 45.3543,-89.7562 54.9003,-85.16 49.9506,-80.2103"/>
</g>
<!-- Jack -->
<g id="node3" class="node"><title>Jack</title>
<ellipse fill="none" stroke="black" cx="117.111" cy="-192.426" rx="27" ry="18"/>
<text text-anchor="middle" x="117.111" y="-188.726" font-family="Times,serif" font-size="14.00">Jack</text>
</g>
<!-- Nona&#45;&gt;Jack -->
<g id="edge2" class="edge"><title>Nona&#45;&gt;Jack</title>
<path fill="none" stroke="black" d="M45.4893,-120.805C59.2157,-134.532 79.3643,-154.68 94.7972,-170.113"/>
<polygon fill="black" stroke="black" points="92.3997,-172.665 101.946,-177.262 97.3495,-167.716 92.3997,-172.665"/>
</g>
<!-- Charli -->
<g id="node4" class="node"><title>Charli</title>
<ellipse fill="none" stroke="black" cx="204.324" cy="-105.213" rx="32.4942" ry="18"/>
<text text-anchor="middle" x="204.324" y="-101.513" font-family="Times,serif" font-size="14.00">Charli</text>
</g>
<!-- Jack&#45;&gt;Charli -->
<g id="edge3" class="edge"><title>Jack&#45;&gt;Charli</title>
<path fill="none" stroke="black" d="M132.302,-177.235C145.807,-163.73 165.752,-143.785 181.23,-128.307"/>
<polygon fill="black" stroke="black" points="183.826,-130.66 188.423,-121.114 178.877,-125.711 183.826,-130.66"/>
</g>
<!-- Charli&#45;&gt;Rose -->
<g id="edge4" class="edge"><title>Charli&#45;&gt;Rose</title>
<path fill="none" stroke="black" d="M188.328,-89.217C174.635,-75.5248 154.773,-55.6629 139.502,-40.3911"/>
<polygon fill="black" stroke="black" points="141.966,-37.9061 132.421,-33.3099 137.017,-42.8559 141.966,-37.9061"/>
</g>
</g>
</svg>
