<?xml version="1.0" encoding="UTF-8" standalone="no"?>
<!DOCTYPE svg PUBLIC "-//W3C//DTD SVG 1.1//EN"
 "http://www.w3.org/Graphics/SVG/1.1/DTD/svg11.dtd">
<!-- Generated by graphviz version 2.38.0 (20140413.2041)
 -->
<!-- Title: gift_exchange Pages: 1 -->
<svg width="476pt" height="452pt"
 viewBox="0.00 0.00 475.93 452.44" xmlns="http://www.w3.org/2000/svg" xmlns:xlink="http://www.w3.org/1999/xlink">
<g id="graph0" class="graph" transform="scale(1 1) rotate(0) translate(4 448.435)">
<title>gift_exchange</title>
<polygon fill="white" stroke="none" points="-4,4 -4,-448.435 471.932,-448.435 471.932,4 -4,4"/>
<!-- Salvatore -->
<g id="node1" class="node"><title>Salvatore</title>
<ellipse fill="none" stroke="black" cx="381.118" cy="-77.814" rx="44.393" ry="18"/>
<text text-anchor="middle" x="381.118" y="-74.114" font-family="Times,serif" font-size="14.00">Salvatore</text>
</g>
<!-- Sarah -->
<g id="node2" class="node"><title>Sarah</title>
<ellipse fill="none" stroke="black" cx="236.715" cy="-18" rx="30.5947" ry="18"/>
<text text-anchor="middle" x="236.715" y="-14.3" font-family="Times,serif" font-size="14.00">Sarah</text>
</g>
<!-- Salvatore&#45;&gt;Sarah -->
<g id="edge1" class="edge"><title>Salvatore&#45;&gt;Sarah</title>
<path fill="none" stroke="black" d="M349.785,-64.8352C326.601,-55.2322 295.035,-42.1571 271.147,-32.2622"/>
<polygon fill="black" stroke="black" points="272.33,-28.9641 261.752,-28.3708 269.651,-35.4312 272.33,-28.9641"/>
</g>
<!-- Zach -->
<g id="node3" class="node"><title>Zach</title>
<ellipse fill="none" stroke="black" cx="92.3111" cy="-77.814" rx="28.6953" ry="18"/>
<text text-anchor="middle" x="92.3111" y="-74.114" font-family="Times,serif" font-size="14.00">Zach</text>
</g>
<!-- Sarah&#45;&gt;Zach -->
<g id="edge2" class="edge"><title>Sarah&#45;&gt;Zach</title>
<path fill="none" stroke="black" d="M211.562,-28.4188C187.773,-38.2723 151.916,-53.1249 125.733,-63.9702"/>
<polygon fill="black" stroke="black" points="124.117,-60.8513 116.217,-67.9117 126.795,-67.3184 124.117,-60.8513"/>
</g>
<!-- Nonie -->
<g id="node4" class="node"><title>Nonie</title>
<ellipse fill="none" stroke="black" cx="32.4971" cy="-222.218" rx="32.4942" ry="18"/>
<text text-anchor="middle" x="32.4971" y="-218.518" font-family="Times,serif" font-size="14.00">Nonie</text>
</g>
<!-- Zach&#45;&gt;Nonie -->
<g id="edge3" class="edge"><title>Zach&#45;&gt;Nonie</title>
<path fill="none" stroke="black" d="M85.0961,-95.2324C74.823,-120.034 55.8841,-165.756 43.7552,-195.038"/>
<polygon fill="black" stroke="black" points="40.5186,-193.706 39.9253,-204.284 46.9858,-196.385 40.5186,-193.706"/>
</g>
<!-- Ben -->
<g id="node5" class="node"><title>Ben</title>
<ellipse fill="none" stroke="black" cx="92.3111" cy="-366.621" rx="27" ry="18"/>
<text text-anchor="middle" x="92.3111" y="-362.921" font-family="Times,serif" font-size="14.00">Ben</text>
</g>
<!-- Nonie&#45;&gt;Ben -->
<g id="edge4" class="edge"><title>Nonie&#45;&gt;Ben</title>
<path fill="none" stroke="black" d="M39.8315,-239.924C50.1564,-264.851 69.0628,-310.495 81.1413,-339.655"/>
<polygon fill="black" stroke="black" points="78.0431,-341.321 85.1036,-349.221 84.5102,-338.643 78.0431,-341.321"/>
</g>
<!-- Bryant -->
<g id="node6" class="node"><title>Bryant</title>
<ellipse fill="none" stroke="black" cx="236.715" cy="-426.435" rx="34.394" ry="18"/>
<text text-anchor="middle" x="236.715" y="-422.735" font-family="Times,serif" font-size="14.00">Bryant</text>
</g>
<!-- Ben&#45;&gt;Bryant -->
<g id="edge5" class="edge"><title>Ben&#45;&gt;Bryant</title>
<path fill="none" stroke="black" d="M115.512,-376.231C138.376,-385.702 173.652,-400.314 200.263,-411.336"/>
<polygon fill="black" stroke="black" points="199.057,-414.625 209.636,-415.219 201.736,-408.158 199.057,-414.625"/>
</g>
<!-- Emily -->
<g id="node7" class="node"><title>Emily</title>
<ellipse fill="none" stroke="black" cx="381.118" cy="-366.621" rx="32.4942" ry="18"/>
<text text-anchor="middle" x="381.118" y="-362.921" font-family="Times,serif" font-size="14.00">Emily</text>
</g>
<!-- Bryant&#45;&gt;Emily -->
<g id="edge6" class="edge"><title>Bryant&#45;&gt;Emily</title>
<path fill="none" stroke="black" d="M263.876,-415.185C286.956,-405.625 320.26,-391.83 345.479,-381.384"/>
<polygon fill="black" stroke="black" points="347.152,-384.479 355.052,-377.419 344.473,-378.012 347.152,-384.479"/>
</g>
<!-- Pate -->
<g id="node8" class="node"><title>Pate</title>
<ellipse fill="none" stroke="black" cx="440.932" cy="-222.218" rx="27" ry="18"/>
<text text-anchor="middle" x="440.932" y="-218.518" font-family="Times,serif" font-size="14.00">Pate</text>
</g>
<!-- Emily&#45;&gt;Pate -->
<g id="edge7" class="edge"><title>Emily&#45;&gt;Pate</title>
<path fill="none" stroke="black" d="M388.453,-348.915C398.778,-323.988 417.684,-278.344 429.763,-249.184"/>
<polygon fill="black" stroke="black" points="433.132,-250.196 433.725,-239.618 426.664,-247.518 433.132,-250.196"/>
</g>
<!-- Pate&#45;&gt;Salvatore -->
<g id="edge8" class="edge"><title>Pate&#45;&gt;Salvatore</title>
<path fill="none" stroke="black" d="M433.717,-204.799C423.444,-179.998 404.505,-134.275 392.376,-104.993"/>
<polygon fill="black" stroke="black" points="395.607,-103.647 388.547,-95.7472 389.14,-106.325 395.607,-103.647"/>
</g>
</g>
</svg>
