<?xml version="1.0" encoding="UTF-8" standalone="no"?>
<!DOCTYPE svg PUBLIC "-//W3C//DTD SVG 1.1//EN"
 "http://www.w3.org/Graphics/SVG/1.1/DTD/svg11.dtd">
<!-- Generated by graphviz version 2.36.0 (20140111.2315)
 -->
<!-- Title: gift_exchange Pages: 1 -->
<svg width="481pt" height="452pt"
 viewBox="0.00 0.00 481.43 452.44" xmlns="http://www.w3.org/2000/svg" xmlns:xlink="http://www.w3.org/1999/xlink">
<g id="graph0" class="graph" transform="scale(1 1) rotate(0) translate(4 448.435)">
<title>gift_exchange</title>
<polygon fill="white" stroke="none" points="-4,4 -4,-448.435 477.43,-448.435 477.43,4 -4,4"/>
<!-- Salvatore -->
<g id="node1" class="node"><title>Salvatore</title>
<ellipse fill="none" stroke="black" cx="383.068" cy="-77.814" rx="44.393" ry="18"/>
<text text-anchor="middle" x="383.068" y="-74.114" font-family="Times,serif" font-size="14.00">Salvatore</text>
</g>
<!-- Pate -->
<g id="node2" class="node"><title>Pate</title>
<ellipse fill="none" stroke="black" cx="238.665" cy="-18" rx="27" ry="18"/>
<text text-anchor="middle" x="238.665" y="-14.3" font-family="Times,serif" font-size="14.00">Pate</text>
</g>
<!-- Salvatore&#45;&gt;Pate -->
<g id="edge1" class="edge"><title>Salvatore&#45;&gt;Pate</title>
<path fill="none" stroke="black" d="M351.735,-64.8352C327.968,-54.9906 295.391,-41.497 271.308,-31.5215"/>
<polygon fill="black" stroke="black" points="272.461,-28.2107 261.883,-27.6174 269.782,-34.6779 272.461,-28.2107"/>
</g>
<!-- Emily -->
<g id="node3" class="node"><title>Emily</title>
<ellipse fill="none" stroke="black" cx="94.2609" cy="-77.814" rx="32.4942" ry="18"/>
<text text-anchor="middle" x="94.2609" y="-74.114" font-family="Times,serif" font-size="14.00">Emily</text>
</g>
<!-- Pate&#45;&gt;Emily -->
<g id="edge2" class="edge"><title>Pate&#45;&gt;Emily</title>
<path fill="none" stroke="black" d="M215.464,-27.6101C192.316,-37.1983 156.445,-52.0564 129.725,-63.1242"/>
<polygon fill="black" stroke="black" points="128.235,-59.953 120.336,-67.0135 130.914,-66.4202 128.235,-59.953"/>
</g>
<!-- Bryant -->
<g id="node4" class="node"><title>Bryant</title>
<ellipse fill="none" stroke="black" cx="34.4469" cy="-222.218" rx="34.394" ry="18"/>
<text text-anchor="middle" x="34.4469" y="-218.518" font-family="Times,serif" font-size="14.00">Bryant</text>
</g>
<!-- Emily&#45;&gt;Bryant -->
<g id="edge3" class="edge"><title>Emily&#45;&gt;Bryant</title>
<path fill="none" stroke="black" d="M86.9265,-95.5207C76.6574,-120.313 57.8994,-165.599 45.8132,-194.777"/>
<polygon fill="black" stroke="black" points="42.4346,-193.788 41.8413,-204.366 48.9018,-196.467 42.4346,-193.788"/>
</g>
<!-- Ben -->
<g id="node5" class="node"><title>Ben</title>
<ellipse fill="none" stroke="black" cx="94.2609" cy="-366.621" rx="27" ry="18"/>
<text text-anchor="middle" x="94.2609" y="-362.921" font-family="Times,serif" font-size="14.00">Ben</text>
</g>
<!-- Bryant&#45;&gt;Ben -->
<g id="edge4" class="edge"><title>Bryant&#45;&gt;Ben</title>
<path fill="none" stroke="black" d="M41.7813,-239.924C52.1063,-264.851 71.0126,-310.495 83.0911,-339.655"/>
<polygon fill="black" stroke="black" points="79.9929,-341.321 87.0534,-349.221 86.4601,-338.643 79.9929,-341.321"/>
</g>
<!-- Nonie -->
<g id="node6" class="node"><title>Nonie</title>
<ellipse fill="none" stroke="black" cx="238.665" cy="-426.435" rx="32.4942" ry="18"/>
<text text-anchor="middle" x="238.665" y="-422.735" font-family="Times,serif" font-size="14.00">Nonie</text>
</g>
<!-- Ben&#45;&gt;Nonie -->
<g id="edge5" class="edge"><title>Ben&#45;&gt;Nonie</title>
<path fill="none" stroke="black" d="M117.462,-376.231C140.61,-385.82 176.48,-400.678 203.2,-411.745"/>
<polygon fill="black" stroke="black" points="202.012,-415.041 212.59,-415.635 204.691,-408.574 202.012,-415.041"/>
</g>
<!-- Zach -->
<g id="node7" class="node"><title>Zach</title>
<ellipse fill="none" stroke="black" cx="383.068" cy="-366.621" rx="28.6953" ry="18"/>
<text text-anchor="middle" x="383.068" y="-362.921" font-family="Times,serif" font-size="14.00">Zach</text>
</g>
<!-- Nonie&#45;&gt;Zach -->
<g id="edge6" class="edge"><title>Nonie&#45;&gt;Zach</title>
<path fill="none" stroke="black" d="M264.815,-415.603C288.598,-405.752 323.821,-391.162 349.64,-380.468"/>
<polygon fill="black" stroke="black" points="351.132,-383.638 359.032,-376.578 348.453,-377.171 351.132,-383.638"/>
</g>
<!-- Sarah -->
<g id="node8" class="node"><title>Sarah</title>
<ellipse fill="none" stroke="black" cx="442.882" cy="-222.218" rx="30.5947" ry="18"/>
<text text-anchor="middle" x="442.882" y="-218.518" font-family="Times,serif" font-size="14.00">Sarah</text>
</g>
<!-- Zach&#45;&gt;Sarah -->
<g id="edge7" class="edge"><title>Zach&#45;&gt;Sarah</title>
<path fill="none" stroke="black" d="M390.283,-349.203C400.556,-324.401 419.495,-278.679 431.624,-249.397"/>
<polygon fill="black" stroke="black" points="434.861,-250.729 435.454,-240.151 428.394,-248.05 434.861,-250.729"/>
</g>
<!-- Sarah&#45;&gt;Salvatore -->
<g id="edge8" class="edge"><title>Sarah&#45;&gt;Salvatore</title>
<path fill="none" stroke="black" d="M435.548,-204.511C425.279,-179.719 406.521,-134.433 394.435,-105.255"/>
<polygon fill="black" stroke="black" points="397.523,-103.565 390.463,-95.6655 391.056,-106.244 397.523,-103.565"/>
</g>
</g>
</svg>
