<?xml version="1.0" standalone="yes"?>

<svg version="1.1" viewBox="0.0 0.0 960.0 720.0" fill="none" stroke="none" stroke-linecap="square" stroke-miterlimit="10" xmlns="http://www.w3.org/2000/svg" xmlns:xlink="http://www.w3.org/1999/xlink"><clipPath id="p.0"><path d="m0 0l960.0 0l0 720.0l-960.0 0l0 -720.0z" clip-rule="nonzero"></path></clipPath><g clip-path="url(#p.0)"><path fill="#000000" fill-opacity="0.0" d="m0 0l960.0 0l0 720.0l-960.0 0z" fill-rule="nonzero"></path><path fill="#d9d9d9" d="m95.338585 68.24012l45.79528 0l0 641.88983l-45.79528 0z" fill-rule="nonzero"></path><path stroke="#000000" stroke-width="2.0" stroke-linejoin="round" stroke-linecap="butt" d="m95.338585 68.24012l45.79528 0l0 641.88983l-45.79528 0z" fill-rule="nonzero"></path><path fill="#d9d9d9" d="m329.0853 66.72326l45.795288 0l0 641.8898l-45.795288 0z" fill-rule="nonzero"></path><path stroke="#000000" stroke-width="2.0" stroke-linejoin="round" stroke-linecap="butt" d="m329.0853 66.72326l45.795288 0l0 641.8898l-45.795288 0z" fill-rule="nonzero"></path><path fill="#d9d9d9" d="m483.50262 66.72326l45.795288 0l0 641.8898l-45.795288 0z" fill-rule="nonzero"></path><path stroke="#000000" stroke-width="2.0" stroke-linejoin="round" stroke-linecap="butt" d="m483.50262 66.72326l45.795288 0l0 641.8898l-45.795288 0z" fill-rule="nonzero"></path><path fill="#d9d9d9" d="m651.48816 75.65876l0 45.795273l-562.7086 0l0 -45.795273z" fill-rule="nonzero"></path><path stroke="#000000" stroke-width="2.0" stroke-linejoin="round" stroke-linecap="butt" d="m651.48816 75.65876l0 45.795273l-562.7086 0l0 -45.795273z" fill-rule="nonzero"></path><path fill="#d9d9d9" d="m646.93964 587.2821l0 45.795288l-562.7087 0l0 -45.795288z" fill-rule="nonzero"></path><path stroke="#000000" stroke-width="2.0" stroke-linejoin="round" stroke-linecap="butt" d="m646.93964 587.2821l0 45.795288l-562.7087 0l0 -45.795288z" fill-rule="nonzero"></path><path fill="#d9d9d9" d="m646.93964 442.20468l0 45.795288l-562.7087 0l0 -45.795288z" fill-rule="nonzero"></path><path stroke="#000000" stroke-width="2.0" stroke-linejoin="round" stroke-linecap="butt" d="m646.93964 442.20468l0 45.795288l-562.7087 0l0 -45.795288z" fill-rule="nonzero"></path><path fill="#d9d9d9" d="m651.48816 221.89497l0 45.795273l-562.7086 0l0 -45.795273z" fill-rule="nonzero"></path><path stroke="#000000" stroke-width="2.0" stroke-linejoin="round" stroke-linecap="butt" d="m651.48816 221.89497l0 45.795273l-562.7086 0l0 -45.795273z" fill-rule="nonzero"></path><path fill="#f4cccc" d="m107.884514 683.2572l0 0c0 -6.957947 5.584099 -12.59845 12.472443 -12.59845l0 0c3.3078995 0 6.4803085 1.3273315 8.819344 3.6900024c2.339035 2.362671 3.6530914 5.5671387 3.6530914 8.908447l0 0c0 6.9578857 -5.584099 12.598389 -12.472435 12.598389l0 0c-6.888344 0 -12.472443 -5.640503 -12.472443 -12.598389z" fill-rule="nonzero"></path><path stroke="#000000" stroke-width="2.0" stroke-linejoin="round" stroke-linecap="butt" d="m107.884514 683.2572l0 0c0 -6.957947 5.584099 -12.59845 12.472443 -12.59845l0 0c3.3078995 0 6.4803085 1.3273315 8.819344 3.6900024c2.339035 2.362671 3.6530914 5.5671387 3.6530914 8.908447l0 0c0 6.9578857 -5.584099 12.598389 -12.472435 12.598389l0 0c-6.888344 0 -12.472443 -5.640503 -12.472443 -12.598389z" fill-rule="nonzero"></path><path fill="#f4cccc" d="m185.09317 610.17975l0 0c0 -6.957947 5.5841064 -12.59845 12.472443 -12.59845l0 0c3.307907 0 6.480316 1.3273315 8.819351 3.6900024c2.339035 2.362671 3.6530914 5.5671387 3.6530914 8.908447l0 0c0 6.957947 -5.5841064 12.59845 -12.472443 12.59845l0 0c-6.888336 0 -12.472443 -5.640503 -12.472443 -12.59845z" fill-rule="nonzero"></path><path stroke="#000000" stroke-width="2.0" stroke-linejoin="round" stroke-linecap="butt" d="m185.09317 610.17975l0 0c0 -6.957947 5.5841064 -12.59845 12.472443 -12.59845l0 0c3.307907 0 6.480316 1.3273315 8.819351 3.6900024c2.339035 2.362671 3.6530914 5.5671387 3.6530914 8.908447l0 0c0 6.957947 -5.5841064 12.59845 -12.472443 12.59845l0 0c-6.888336 0 -12.472443 -5.640503 -12.472443 -12.59845z" fill-rule="nonzero"></path><path fill="#f4cccc" d="m262.30185 537.1023l0 0c0 -6.9578857 5.584076 -12.598389 12.472443 -12.598389l0 0c3.3078918 0 6.4802856 1.3273315 8.819336 3.6900024c2.3390198 2.362671 3.6530762 5.5670776 3.6530762 8.908386l0 0c0 6.957947 -5.584076 12.59845 -12.472412 12.59845l0 0c-6.8883667 0 -12.472443 -5.640503 -12.472443 -12.59845z" fill-rule="nonzero"></path><path stroke="#000000" stroke-width="2.0" stroke-linejoin="round" stroke-linecap="butt" d="m262.30185 537.1023l0 0c0 -6.9578857 5.584076 -12.598389 12.472443 -12.598389l0 0c3.3078918 0 6.4802856 1.3273315 8.819336 3.6900024c2.3390198 2.362671 3.6530762 5.5670776 3.6530762 8.908386l0 0c0 6.957947 -5.584076 12.59845 -12.472412 12.59845l0 0c-6.8883667 0 -12.472443 -5.640503 -12.472443 -12.59845z" fill-rule="nonzero"></path><path fill="#f4cccc" d="m339.5105 464.0249l0 0c0 -6.9579163 5.5841064 -12.598419 12.472443 -12.598419l0 0c3.3078918 0 6.480316 1.327301 8.819336 3.689972c2.3390503 2.362671 3.6531067 5.5671387 3.6531067 8.908447l0 0c0 6.9579163 -5.5841064 12.598419 -12.472443 12.598419l0 0c-6.888336 0 -12.472443 -5.640503 -12.472443 -12.598419z" fill-rule="nonzero"></path><path stroke="#000000" stroke-width="2.0" stroke-linejoin="round" stroke-linecap="butt" d="m339.5105 464.0249l0 0c0 -6.9579163 5.5841064 -12.598419 12.472443 -12.598419l0 0c3.3078918 0 6.480316 1.327301 8.819336 3.689972c2.3390503 2.362671 3.6531067 5.5671387 3.6531067 8.908447l0 0c0 6.9579163 -5.5841064 12.598419 -12.472443 12.598419l0 0c-6.888336 0 -12.472443 -5.640503 -12.472443 -12.598419z" fill-rule="nonzero"></path><path fill="#f4cccc" d="m416.71915 390.94748l0 0c0 -6.957947 5.5841064 -12.59845 12.472443 -12.59845l0 0c3.3079224 0 6.480316 1.3273315 8.819366 3.6900024c2.3390198 2.362671 3.6530762 5.567108 3.6530762 8.908447l0 0c0 6.9579163 -5.5841064 12.598419 -12.472443 12.598419l0 0c-6.888336 0 -12.472443 -5.640503 -12.472443 -12.598419z" fill-rule="nonzero"></path><path stroke="#000000" stroke-width="2.0" stroke-linejoin="round" stroke-linecap="butt" d="m416.71915 390.94748l0 0c0 -6.957947 5.5841064 -12.59845 12.472443 -12.59845l0 0c3.3079224 0 6.480316 1.3273315 8.819366 3.6900024c2.3390198 2.362671 3.6530762 5.567108 3.6530762 8.908447l0 0c0 6.9579163 -5.5841064 12.598419 -12.472443 12.598419l0 0c-6.888336 0 -12.472443 -5.640503 -12.472443 -12.598419z" fill-rule="nonzero"></path><path fill="#f4cccc" d="m493.92783 317.87003l0 0c0 -6.9579163 5.5841064 -12.598419 12.472443 -12.598419l0 0c3.3078918 0 6.4802856 1.3273315 8.819336 3.6900024c2.3390503 2.362671 3.6530762 5.567108 3.6530762 8.908417l0 0c0 6.9579163 -5.5841064 12.59845 -12.472412 12.59845l0 0c-6.888336 0 -12.472443 -5.6405334 -12.472443 -12.59845z" fill-rule="nonzero"></path><path stroke="#000000" stroke-width="2.0" stroke-linejoin="round" stroke-linecap="butt" d="m493.92783 317.87003l0 0c0 -6.9579163 5.5841064 -12.598419 12.472443 -12.598419l0 0c3.3078918 0 6.4802856 1.3273315 8.819336 3.6900024c2.3390503 2.362671 3.6530762 5.567108 3.6530762 8.908417l0 0c0 6.9579163 -5.5841064 12.59845 -12.472412 12.59845l0 0c-6.888336 0 -12.472443 -5.6405334 -12.472443 -12.59845z" fill-rule="nonzero"></path><path fill="#f4cccc" d="m571.1365 244.7926l0 0c0 -6.9579163 5.5841064 -12.598419 12.472473 -12.598419l0 0c3.3078613 0 6.4802856 1.3273315 8.819336 3.6899872c2.3390503 2.362671 3.6530762 5.5671234 3.6530762 8.908432l0 0c0 6.9579315 -5.5841064 12.598419 -12.472412 12.598419l0 0c-6.8883667 0 -12.472473 -5.6404877 -12.472473 -12.598419z" fill-rule="nonzero"></path><path stroke="#000000" stroke-width="2.0" stroke-linejoin="round" stroke-linecap="butt" d="m571.1365 244.7926l0 0c0 -6.9579163 5.5841064 -12.598419 12.472473 -12.598419l0 0c3.3078613 0 6.4802856 1.3273315 8.819336 3.6899872c2.3390503 2.362671 3.6530762 5.5671234 3.6530762 8.908432l0 0c0 6.9579315 -5.5841064 12.598419 -12.472412 12.598419l0 0c-6.8883667 0 -12.472473 -5.6404877 -12.472473 -12.598419z" fill-rule="nonzero"></path><path fill="#000000" fill-opacity="0.0" d="m132.82939 683.2572l73.98425 -0.661438" fill-rule="nonzero"></path><path stroke="#000000" stroke-width="2.0" stroke-linejoin="round" stroke-linecap="butt" d="m132.82939 683.2572l61.984726 -0.5541382" fill-rule="evenodd"></path><path fill="#000000" stroke="#000000" stroke-width="2.0" stroke-linecap="butt" d="m194.84366 686.00635l9.046295 -3.3844604l-9.105362 -3.222168z" fill-rule="evenodd"></path><path fill="#000000" fill-opacity="0.0" d="m197.56561 597.5813l0 -46.8031" fill-rule="nonzero"></path><path stroke="#000000" stroke-width="2.0" stroke-linejoin="round" stroke-linecap="butt" d="m197.56561 597.5813l0 -34.8031" fill-rule="evenodd"></path><path fill="#000000" stroke="#000000" stroke-width="2.0" stroke-linecap="butt" d="m200.86908 562.7782l-3.3034668 -9.076233l-3.3034668 9.076233z" fill-rule="evenodd"></path><path fill="#000000" fill-opacity="0.0" d="m360.80228 455.11646l59.569977 -55.26056" fill-rule="nonzero"></path><path stroke="#000000" stroke-width="2.0" stroke-linejoin="round" stroke-linecap="butt" d="m360.80228 455.11646l50.77243 -47.099487" fill-rule="evenodd"></path><path fill="#000000" stroke="#000000" stroke-width="2.0" stroke-linecap="butt" d="m413.82138 410.43884l4.4073486 -8.594513l-8.900665 3.7507935z" fill-rule="evenodd"></path><path fill="#000000" fill-opacity="0.0" d="m518.8727 317.87003l66.64569 -0.25195312" fill-rule="nonzero"></path><path stroke="#000000" stroke-width="2.0" stroke-linejoin="round" stroke-linecap="butt" d="m518.8727 317.87003l54.645752 -0.20657349" fill-rule="evenodd"></path><path fill="#000000" stroke="#000000" stroke-width="2.0" stroke-linecap="butt" d="m573.53094 320.9669l9.06366 -3.3377686l-9.088623 -3.2691345z" fill-rule="evenodd"></path><path fill="#000000" fill-opacity="0.0" d="m583.7979 231.53278l-0.18896484 -46.14174" fill-rule="nonzero"></path><path stroke="#000000" stroke-width="2.0" stroke-linejoin="round" stroke-linecap="butt" d="m583.7979 231.53276l-0.13983154 -34.14183" fill-rule="evenodd"></path><path fill="#000000" stroke="#000000" stroke-width="2.0" stroke-linecap="butt" d="m586.9615 197.37741l-3.3405762 -9.062592l-3.2662964 9.089645z" fill-rule="evenodd"></path><path fill="#cfe2f3" d="m107.884514 611.2572l0 0c0 -6.957947 5.584099 -12.59845 12.472443 -12.59845l0 0c3.3078995 0 6.4803085 1.3273315 8.819344 3.6900024c2.339035 2.362671 3.6530914 5.5671387 3.6530914 8.908447l0 0c0 6.9578857 -5.584099 12.598389 -12.472435 12.598389l0 0c-6.888344 0 -12.472443 -5.640503 -12.472443 -12.598389z" fill-rule="nonzero"></path><path stroke="#000000" stroke-width="2.0" stroke-linejoin="round" stroke-linecap="butt" d="m107.884514 611.2572l0 0c0 -6.957947 5.584099 -12.59845 12.472443 -12.59845l0 0c3.3078995 0 6.4803085 1.3273315 8.819344 3.6900024c2.339035 2.362671 3.6530914 5.5671387 3.6530914 8.908447l0 0c0 6.9578857 -5.584099 12.598389 -12.472435 12.598389l0 0c-6.888344 0 -12.472443 -5.640503 -12.472443 -12.598389z" fill-rule="nonzero"></path><path fill="#cfe2f3" d="m185.09317 538.17975l0 0c0 -6.957947 5.5841064 -12.59845 12.472443 -12.59845l0 0c3.307907 0 6.480316 1.3273315 8.819351 3.6900024c2.339035 2.362671 3.6530914 5.5671387 3.6530914 8.908447l0 0c0 6.957947 -5.5841064 12.59845 -12.472443 12.59845l0 0c-6.888336 0 -12.472443 -5.640503 -12.472443 -12.59845z" fill-rule="nonzero"></path><path stroke="#000000" stroke-width="2.0" stroke-linejoin="round" stroke-linecap="butt" d="m185.09317 538.17975l0 0c0 -6.957947 5.5841064 -12.59845 12.472443 -12.59845l0 0c3.307907 0 6.480316 1.3273315 8.819351 3.6900024c2.339035 2.362671 3.6530914 5.5671387 3.6530914 8.908447l0 0c0 6.957947 -5.5841064 12.59845 -12.472443 12.59845l0 0c-6.888336 0 -12.472443 -5.640503 -12.472443 -12.59845z" fill-rule="nonzero"></path><path fill="#cfe2f3" d="m262.30185 465.10233l0 0c0 -6.9579163 5.584076 -12.598419 12.472443 -12.598419l0 0c3.3078918 0 6.4802856 1.3273315 8.819336 3.689972c2.3390198 2.362671 3.6530762 5.5671387 3.6530762 8.908447l0 0c0 6.9579163 -5.584076 12.598419 -12.472412 12.598419l0 0c-6.8883667 0 -12.472443 -5.640503 -12.472443 -12.598419z" fill-rule="nonzero"></path><path stroke="#000000" stroke-width="2.0" stroke-linejoin="round" stroke-linecap="butt" d="m262.30185 465.10233l0 0c0 -6.9579163 5.584076 -12.598419 12.472443 -12.598419l0 0c3.3078918 0 6.4802856 1.3273315 8.819336 3.689972c2.3390198 2.362671 3.6530762 5.5671387 3.6530762 8.908447l0 0c0 6.9579163 -5.584076 12.598419 -12.472412 12.598419l0 0c-6.8883667 0 -12.472443 -5.640503 -12.472443 -12.598419z" fill-rule="nonzero"></path><path fill="#cfe2f3" d="m339.5105 392.0249l0 0c0 -6.9579163 5.5841064 -12.598419 12.472443 -12.598419l0 0c3.3078918 0 6.480316 1.327301 8.819336 3.689972c2.3390503 2.362671 3.6531067 5.5671387 3.6531067 8.908447l0 0c0 6.9579163 -5.5841064 12.598419 -12.472443 12.598419l0 0c-6.888336 0 -12.472443 -5.640503 -12.472443 -12.598419z" fill-rule="nonzero"></path><path stroke="#000000" stroke-width="2.0" stroke-linejoin="round" stroke-linecap="butt" d="m339.5105 392.0249l0 0c0 -6.9579163 5.5841064 -12.598419 12.472443 -12.598419l0 0c3.3078918 0 6.480316 1.327301 8.819336 3.689972c2.3390503 2.362671 3.6531067 5.5671387 3.6531067 8.908447l0 0c0 6.9579163 -5.5841064 12.598419 -12.472443 12.598419l0 0c-6.888336 0 -12.472443 -5.640503 -12.472443 -12.598419z" fill-rule="nonzero"></path><path fill="#cfe2f3" d="m416.71915 318.94748l0 0c0 -6.957947 5.5841064 -12.59845 12.472443 -12.59845l0 0c3.3079224 0 6.480316 1.3273315 8.819366 3.6900024c2.3390198 2.362671 3.6530762 5.567108 3.6530762 8.908447l0 0c0 6.9579163 -5.5841064 12.598419 -12.472443 12.598419l0 0c-6.888336 0 -12.472443 -5.640503 -12.472443 -12.598419z" fill-rule="nonzero"></path><path stroke="#000000" stroke-width="2.0" stroke-linejoin="round" stroke-linecap="butt" d="m416.71915 318.94748l0 0c0 -6.957947 5.5841064 -12.59845 12.472443 -12.59845l0 0c3.3079224 0 6.480316 1.3273315 8.819366 3.6900024c2.3390198 2.362671 3.6530762 5.567108 3.6530762 8.908447l0 0c0 6.9579163 -5.5841064 12.598419 -12.472443 12.598419l0 0c-6.888336 0 -12.472443 -5.640503 -12.472443 -12.598419z" fill-rule="nonzero"></path><path fill="#cfe2f3" d="m493.92783 245.87004l0 0c0 -6.9579163 5.5841064 -12.598434 12.472443 -12.598434l0 0c3.3078918 0 6.4802856 1.3273315 8.819336 3.6900024c2.3390503 2.3626556 3.6530762 5.5671234 3.6530762 8.908432l0 0c0 6.9579163 -5.5841064 12.598434 -12.472412 12.598434l0 0c-6.888336 0 -12.472443 -5.640518 -12.472443 -12.598434z" fill-rule="nonzero"></path><path stroke="#000000" stroke-width="2.0" stroke-linejoin="round" stroke-linecap="butt" d="m493.92783 245.87004l0 0c0 -6.9579163 5.5841064 -12.598434 12.472443 -12.598434l0 0c3.3078918 0 6.4802856 1.3273315 8.819336 3.6900024c2.3390503 2.3626556 3.6530762 5.5671234 3.6530762 8.908432l0 0c0 6.9579163 -5.5841064 12.598434 -12.472412 12.598434l0 0c-6.888336 0 -12.472443 -5.640518 -12.472443 -12.598434z" fill-rule="nonzero"></path><path fill="#cfe2f3" d="m571.1365 172.7926l0 0c0 -6.9579163 5.5841064 -12.598419 12.472473 -12.598419l0 0c3.3078613 0 6.4802856 1.3273315 8.819336 3.6899872c2.3390503 2.362671 3.6530762 5.5671234 3.6530762 8.908432l0 0c0 6.9579315 -5.5841064 12.598434 -12.472412 12.598434l0 0c-6.8883667 0 -12.472473 -5.640503 -12.472473 -12.598434z" fill-rule="nonzero"></path><path stroke="#000000" stroke-width="2.0" stroke-linejoin="round" stroke-linecap="butt" d="m571.1365 172.7926l0 0c0 -6.9579163 5.5841064 -12.598419 12.472473 -12.598419l0 0c3.3078613 0 6.4802856 1.3273315 8.819336 3.6899872c2.3390503 2.362671 3.6530762 5.5671234 3.6530762 8.908432l0 0c0 6.9579315 -5.5841064 12.598434 -12.472412 12.598434l0 0c-6.8883667 0 -12.472473 -5.640503 -12.472473 -12.598434z" fill-rule="nonzero"></path><path fill="#000000" fill-opacity="0.0" d="m129.1763 602.34875l59.56996 -55.26056" fill-rule="nonzero"></path><path stroke="#000000" stroke-width="2.0" stroke-linejoin="round" stroke-linecap="butt" d="m129.1763 602.34875l50.77243 -47.099487" fill-rule="evenodd"></path><path fill="#000000" stroke="#000000" stroke-width="2.0" stroke-linecap="butt" d="m182.1954 557.67114l4.4073486 -8.594543l-8.900665 3.7507935z" fill-rule="evenodd"></path><path fill="#000000" fill-opacity="0.0" d="m274.7743 452.5039l0 -46.80316" fill-rule="nonzero"></path><path stroke="#000000" stroke-width="2.0" stroke-linejoin="round" stroke-linecap="butt" d="m274.7743 452.5039l0 -34.80316" fill-rule="evenodd"></path><path fill="#000000" stroke="#000000" stroke-width="2.0" stroke-linecap="butt" d="m278.07773 417.70074l-3.3034363 -9.076202l-3.3034668 9.076202z" fill-rule="evenodd"></path><path fill="#000000" fill-opacity="0.0" d="m364.45538 392.0249l52.263763 -1.0774231" fill-rule="nonzero"></path><path stroke="#000000" stroke-width="2.0" stroke-linejoin="round" stroke-linecap="butt" d="m364.45538 392.0249l40.266327 -0.83010864" fill-rule="evenodd"></path><path fill="#000000" stroke="#000000" stroke-width="2.0" stroke-linecap="butt" d="m404.7898 394.49756l9.006195 -3.4898376l-9.1423645 -3.1156921z" fill-rule="evenodd"></path><path fill="#000000" fill-opacity="0.0" d="m515.2196 236.96161l59.569946 -55.260574" fill-rule="nonzero"></path><path stroke="#000000" stroke-width="2.0" stroke-linejoin="round" stroke-linecap="butt" d="m515.2196 236.96161l50.77246 -47.099487" fill-rule="evenodd"></path><path fill="#000000" stroke="#000000" stroke-width="2.0" stroke-linecap="butt" d="m568.2387 192.284l4.4073486 -8.594513l-8.900696 3.7507935z" fill-rule="evenodd"></path><path fill="#d9ead3" d="m107.884514 539.2572l0 0c0 -6.957947 5.584099 -12.59845 12.472443 -12.59845l0 0c3.3078995 0 6.4803085 1.3273315 8.819344 3.6900024c2.339035 2.362671 3.6530914 5.5671387 3.6530914 8.908447l0 0c0 6.9578857 -5.584099 12.598389 -12.472435 12.598389l0 0c-6.888344 0 -12.472443 -5.640503 -12.472443 -12.598389z" fill-rule="nonzero"></path><path stroke="#000000" stroke-width="2.0" stroke-linejoin="round" stroke-linecap="butt" d="m107.884514 539.2572l0 0c0 -6.957947 5.584099 -12.59845 12.472443 -12.59845l0 0c3.3078995 0 6.4803085 1.3273315 8.819344 3.6900024c2.339035 2.362671 3.6530914 5.5671387 3.6530914 8.908447l0 0c0 6.9578857 -5.584099 12.598389 -12.472435 12.598389l0 0c-6.888344 0 -12.472443 -5.640503 -12.472443 -12.598389z" fill-rule="nonzero"></path><path fill="#d9ead3" d="m185.09317 466.17975l0 0c0 -6.9579163 5.5841064 -12.598419 12.472443 -12.598419l0 0c3.307907 0 6.480316 1.3273315 8.819351 3.6900024c2.339035 2.3626404 3.6530914 5.567108 3.6530914 8.908417l0 0c0 6.9579163 -5.5841064 12.598419 -12.472443 12.598419l0 0c-6.888336 0 -12.472443 -5.640503 -12.472443 -12.598419z" fill-rule="nonzero"></path><path stroke="#000000" stroke-width="2.0" stroke-linejoin="round" stroke-linecap="butt" d="m185.09317 466.17975l0 0c0 -6.9579163 5.5841064 -12.598419 12.472443 -12.598419l0 0c3.307907 0 6.480316 1.3273315 8.819351 3.6900024c2.339035 2.3626404 3.6530914 5.567108 3.6530914 8.908417l0 0c0 6.9579163 -5.5841064 12.598419 -12.472443 12.598419l0 0c-6.888336 0 -12.472443 -5.640503 -12.472443 -12.598419z" fill-rule="nonzero"></path><path fill="#d9ead3" d="m262.30185 393.10233l0 0c0 -6.9579163 5.584076 -12.598419 12.472443 -12.598419l0 0c3.3078918 0 6.4802856 1.3273315 8.819336 3.689972c2.3390198 2.362671 3.6530762 5.5671387 3.6530762 8.908447l0 0c0 6.9579163 -5.584076 12.598419 -12.472412 12.598419l0 0c-6.8883667 0 -12.472443 -5.640503 -12.472443 -12.598419z" fill-rule="nonzero"></path><path stroke="#000000" stroke-width="2.0" stroke-linejoin="round" stroke-linecap="butt" d="m262.30185 393.10233l0 0c0 -6.9579163 5.584076 -12.598419 12.472443 -12.598419l0 0c3.3078918 0 6.4802856 1.3273315 8.819336 3.689972c2.3390198 2.362671 3.6530762 5.5671387 3.6530762 8.908447l0 0c0 6.9579163 -5.584076 12.598419 -12.472412 12.598419l0 0c-6.8883667 0 -12.472443 -5.640503 -12.472443 -12.598419z" fill-rule="nonzero"></path><path fill="#d9ead3" d="m339.5105 320.0249l0 0c0 -6.9579163 5.5841064 -12.598419 12.472443 -12.598419l0 0c3.3078918 0 6.480316 1.327301 8.819336 3.689972c2.3390503 2.362671 3.6531067 5.5671387 3.6531067 8.908447l0 0c0 6.9579163 -5.5841064 12.598419 -12.472443 12.598419l0 0c-6.888336 0 -12.472443 -5.640503 -12.472443 -12.598419z" fill-rule="nonzero"></path><path stroke="#000000" stroke-width="2.0" stroke-linejoin="round" stroke-linecap="butt" d="m339.5105 320.0249l0 0c0 -6.9579163 5.5841064 -12.598419 12.472443 -12.598419l0 0c3.3078918 0 6.480316 1.327301 8.819336 3.689972c2.3390503 2.362671 3.6531067 5.5671387 3.6531067 8.908447l0 0c0 6.9579163 -5.5841064 12.598419 -12.472443 12.598419l0 0c-6.888336 0 -12.472443 -5.640503 -12.472443 -12.598419z" fill-rule="nonzero"></path><path fill="#d9ead3" d="m416.71915 246.94746l0 0c0 -6.9579163 5.5841064 -12.598419 12.472443 -12.598419l0 0c3.3079224 0 6.480316 1.3273315 8.819366 3.6899872c2.3390198 2.362671 3.6530762 5.5671234 3.6530762 8.908432l0 0c0 6.9579163 -5.5841064 12.598434 -12.472443 12.598434l0 0c-6.888336 0 -12.472443 -5.640518 -12.472443 -12.598434z" fill-rule="nonzero"></path><path stroke="#000000" stroke-width="2.0" stroke-linejoin="round" stroke-linecap="butt" d="m416.71915 246.94746l0 0c0 -6.9579163 5.5841064 -12.598419 12.472443 -12.598419l0 0c3.3079224 0 6.480316 1.3273315 8.819366 3.6899872c2.3390198 2.362671 3.6530762 5.5671234 3.6530762 8.908432l0 0c0 6.9579163 -5.5841064 12.598434 -12.472443 12.598434l0 0c-6.888336 0 -12.472443 -5.640518 -12.472443 -12.598434z" fill-rule="nonzero"></path><path fill="#d9ead3" d="m493.92783 173.87004l0 0c0 -6.9579163 5.5841064 -12.598434 12.472443 -12.598434l0 0c3.3078918 0 6.4802856 1.3273315 8.819336 3.6900024c2.3390503 2.3626556 3.6530762 5.5671234 3.6530762 8.908432l0 0c0 6.9579163 -5.5841064 12.598419 -12.472412 12.598419l0 0c-6.888336 0 -12.472443 -5.640503 -12.472443 -12.598419z" fill-rule="nonzero"></path><path stroke="#000000" stroke-width="2.0" stroke-linejoin="round" stroke-linecap="butt" d="m493.92783 173.87004l0 0c0 -6.9579163 5.5841064 -12.598434 12.472443 -12.598434l0 0c3.3078918 0 6.4802856 1.3273315 8.819336 3.6900024c2.3390503 2.3626556 3.6530762 5.5671234 3.6530762 8.908432l0 0c0 6.9579163 -5.5841064 12.598419 -12.472412 12.598419l0 0c-6.888336 0 -12.472443 -5.640503 -12.472443 -12.598419z" fill-rule="nonzero"></path><path fill="#d9ead3" d="m571.1365 100.79261l0 0c0 -6.9579163 5.5841064 -12.598427 12.472473 -12.598427l0 0c3.3078613 0 6.4802856 1.3273315 8.819336 3.6899948c2.3390503 2.3626633 3.6530762 5.5671234 3.6530762 8.908432l0 0c0 6.9579163 -5.5841064 12.598427 -12.472412 12.598427l0 0c-6.8883667 0 -12.472473 -5.6405106 -12.472473 -12.598427z" fill-rule="nonzero"></path><path stroke="#000000" stroke-width="2.0" stroke-linejoin="round" stroke-linecap="butt" d="m571.1365 100.79261l0 0c0 -6.9579163 5.5841064 -12.598427 12.472473 -12.598427l0 0c3.3078613 0 6.4802856 1.3273315 8.819336 3.6899948c2.3390503 2.3626633 3.6530762 5.5671234 3.6530762 8.908432l0 0c0 6.9579163 -5.5841064 12.598427 -12.472412 12.598427l0 0c-6.8883667 0 -12.472473 -5.6405106 -12.472473 -12.598427z" fill-rule="nonzero"></path><path fill="#000000" fill-opacity="0.0" d="m132.82939 539.2572l52.26378 -1.0774536" fill-rule="nonzero"></path><path stroke="#000000" stroke-width="2.0" stroke-linejoin="round" stroke-linecap="butt" d="m132.82939 539.2572l40.266327 -0.83013916" fill-rule="evenodd"></path><path fill="#000000" stroke="#000000" stroke-width="2.0" stroke-linecap="butt" d="m173.16382 541.72986l9.00618 -3.4898682l-9.1423645 -3.1156616z" fill-rule="evenodd"></path><path fill="#000000" fill-opacity="0.0" d="m197.56561 453.58133l0.09449768 -50.92914" fill-rule="nonzero"></path><path stroke="#000000" stroke-width="2.0" stroke-linejoin="round" stroke-linecap="butt" d="m197.56561 453.58133l0.07221985 -38.92917" fill-rule="evenodd"></path><path fill="#000000" stroke="#000000" stroke-width="2.0" stroke-linecap="butt" d="m200.9413 414.6583l-3.286621 -9.082306l-3.3202972 9.070038z" fill-rule="evenodd"></path><path fill="#000000" fill-opacity="0.0" d="m364.45538 320.0249l52.263763 -1.0774231" fill-rule="nonzero"></path><path stroke="#000000" stroke-width="2.0" stroke-linejoin="round" stroke-linecap="butt" d="m364.45538 320.0249l40.266327 -0.83010864" fill-rule="evenodd"></path><path fill="#000000" stroke="#000000" stroke-width="2.0" stroke-linecap="butt" d="m404.7898 322.49756l9.006195 -3.4898376l-9.1423645 -3.1156921z" fill-rule="evenodd"></path><path fill="#000000" fill-opacity="0.0" d="m429.1916 234.34904l-0.8503723 -49.322845" fill-rule="nonzero"></path><path stroke="#000000" stroke-width="2.0" stroke-linejoin="round" stroke-linecap="butt" d="m429.1916 234.34904l-0.64352417 -37.324615" fill-rule="evenodd"></path><path fill="#000000" stroke="#000000" stroke-width="2.0" stroke-linecap="butt" d="m431.85104 196.96747l-3.4594421 -9.017899l-3.146515 9.131805z" fill-rule="evenodd"></path><path fill="#000000" fill-opacity="0.0" d="m518.8727 173.87004l52.263794 -1.0774384" fill-rule="nonzero"></path><path stroke="#000000" stroke-width="2.0" stroke-linejoin="round" stroke-linecap="butt" d="m518.8727 173.87004l40.266357 -0.8300934" fill-rule="evenodd"></path><path fill="#000000" stroke="#000000" stroke-width="2.0" stroke-linecap="butt" d="m559.2071 176.3427l9.006226 -3.4898224l-9.142395 -3.1156921z" fill-rule="evenodd"></path><path fill="#000000" fill-opacity="0.0" d="m44.68504 668.42255l25.669292 0l0 29.66925l-25.669292 0z" fill-rule="nonzero"></path><path fill="#000000" d="m58.47245 689.42126l0 -3.25l-5.90625 0l0 -1.53125l6.21875 -8.8125l1.359375 0l0 8.8125l1.84375 0l0 1.53125l-1.84375 0l0 3.25l-1.671875 0zm0 -4.78125l0 -6.140625l-4.25 6.140625l4.25 0z" fill-rule="nonzero"></path><path fill="#000000" fill-opacity="0.0" d="m44.68504 595.33496l25.669292 0l0 29.66925l-25.669292 0z" fill-rule="nonzero"></path><path fill="#000000" d="m53.113075 612.7711l1.765625 -0.15625q0.1875 1.28125 0.890625 1.9375q0.71875 0.640625 1.71875 0.640625q1.203125 0 2.03125 -0.90625q0.84375 -0.90625 0.84375 -2.421875q0 -1.421875 -0.8125 -2.25q-0.796875 -0.828125 -2.09375 -0.828125q-0.796875 0 -1.453125 0.375q-0.640625 0.359375 -1.015625 0.953125l-1.578125 -0.203125l1.328125 -7.0l6.765625 0l0 1.609375l-5.4375 0l-0.734375 3.640625q1.234375 -0.84375 2.578125 -0.84375q1.78125 0 3.0 1.234375q1.234375 1.234375 1.234375 3.171875q0 1.84375 -1.078125 3.1875q-1.3125 1.65625 -3.578125 1.65625q-1.859375 0 -3.03125 -1.03125q-1.171875 -1.046875 -1.34375 -2.765625z" fill-rule="nonzero"></path><path fill="#000000" fill-opacity="0.0" d="m44.68504 522.2473l25.669292 0l0 29.669312l-25.669292 0z" fill-rule="nonzero"></path><path fill="#000000" d="m61.78495 532.9804l-1.65625 0.125q-0.21875 -0.984375 -0.640625 -1.421875q-0.671875 -0.71875 -1.65625 -0.71875q-0.8125 0 -1.40625 0.4375q-0.796875 0.578125 -1.25 1.6875q-0.453125 1.09375 -0.46875 3.140625q0.609375 -0.921875 1.46875 -1.359375q0.875 -0.453125 1.828125 -0.453125q1.671875 0 2.84375 1.234375q1.171875 1.234375 1.171875 3.171875q0 1.28125 -0.546875 2.390625q-0.546875 1.09375 -1.515625 1.6875q-0.96875 0.578125 -2.1875 0.578125q-2.09375 0 -3.40625 -1.53125q-1.3125 -1.546875 -1.3125 -5.0625q0 -3.953125 1.453125 -5.734375q1.265625 -1.5625 3.421875 -1.5625q1.609375 0 2.625 0.90625q1.03125 0.890625 1.234375 2.484375zm-6.8125 5.859375q0 0.859375 0.359375 1.65625q0.375 0.78125 1.03125 1.203125q0.65625 0.40625 1.375 0.40625q1.0625 0 1.8125 -0.84375q0.765625 -0.859375 0.765625 -2.328125q0 -1.40625 -0.75 -2.21875q-0.75 -0.8125 -1.890625 -0.8125q-1.125 0 -1.921875 0.8125q-0.78125 0.8125 -0.78125 2.125z" fill-rule="nonzero"></path><path fill="#000000" fill-opacity="0.0" d="m26.35433 449.15973l62.330704 0l0 29.669312l-62.330704 0z" fill-rule="nonzero"></path><path fill="#000000" d="m39.245888 458.34595l0 -1.609375l8.796875 0l0 1.296875q-1.296875 1.375 -2.578125 3.671875q-1.265625 2.296875 -1.96875 4.71875q-0.5 1.703125 -0.640625 3.734375l-1.71875 0q0.03125 -1.609375 0.625 -3.875q0.609375 -2.28125 1.734375 -4.390625q1.140625 -2.109375 2.40625 -3.546875l-6.65625 0zm19.090271 15.8125q-1.375 -1.75 -2.328125 -4.078125q-0.953125 -2.34375 -0.953125 -4.84375q0 -2.21875 0.703125 -4.234375q0.84375 -2.34375 2.578125 -4.671875l1.203125 0q-1.125 1.921875 -1.484375 2.75q-0.5625 1.28125 -0.890625 2.671875q-0.40625 1.734375 -0.40625 3.484375q0 4.46875 2.78125 8.921875l-1.203125 0zm2.556427 -10.703125q0 -2.421875 0.5 -3.890625q0.5 -1.46875 1.46875 -2.265625q0.984375 -0.796875 2.46875 -0.796875q1.09375 0 1.921875 0.4375q0.828125 0.4375 1.359375 1.28125q0.546875 0.828125 0.84375 2.015625q0.3125 1.1875 0.3125 3.21875q0 2.390625 -0.5 3.859375q-0.484375 1.46875 -1.46875 2.28125q-0.96875 0.796875 -2.46875 0.796875q-1.96875 0 -3.078125 -1.40625q-1.359375 -1.703125 -1.359375 -5.53125zm1.71875 0q0 3.34375 0.78125 4.453125q0.796875 1.109375 1.9375 1.109375q1.15625 0 1.9375 -1.109375q0.78125 -1.125 0.78125 -4.453125q0 -3.359375 -0.78125 -4.46875q-0.78125 -1.109375 -1.953125 -1.109375q-1.15625 0 -1.828125 0.984375q-0.875 1.234375 -0.875 4.59375zm10.219467 10.703125l-1.1875 0q2.765625 -4.453125 2.765625 -8.921875q0 -1.734375 -0.390625 -3.453125q-0.328125 -1.390625 -0.890625 -2.671875q-0.359375 -0.84375 -1.484375 -2.78125l1.1875 0q1.75 2.328125 2.578125 4.671875q0.71875 2.015625 0.71875 4.234375q0 2.5 -0.96875 4.84375q-0.953125 2.328125 -2.328125 4.078125z" fill-rule="nonzero"></path><path fill="#000000" fill-opacity="0.0" d="m26.35433 376.07214l62.330704 0l0 29.669281l-62.330704 0z" fill-rule="nonzero"></path><path fill="#000000" d="m41.699013 389.69583q-1.046875 -0.375 -1.546875 -1.078125q-0.5 -0.71875 -0.5 -1.703125q0 -1.484375 1.0625 -2.484375q1.078125 -1.015625 2.84375 -1.015625q1.78125 0 2.859375 1.03125q1.09375 1.03125 1.09375 2.515625q0 0.953125 -0.5 1.65625q-0.484375 0.703125 -1.5 1.078125q1.25 0.40625 1.90625 1.3125q0.65625 0.90625 0.65625 2.171875q0 1.75 -1.234375 2.9375q-1.234375 1.1875 -3.25 1.1875q-2.015625 0 -3.25 -1.1875q-1.234375 -1.203125 -1.234375 -2.984375q0 -1.328125 0.671875 -2.21875q0.671875 -0.890625 1.921875 -1.21875zm-0.328125 -2.828125q0 0.96875 0.609375 1.578125q0.625 0.609375 1.625 0.609375q0.953125 0 1.5625 -0.609375q0.625 -0.609375 0.625 -1.484375q0 -0.921875 -0.640625 -1.546875q-0.625 -0.625 -1.578125 -0.625q-0.953125 0 -1.578125 0.609375q-0.625 0.609375 -0.625 1.46875zm-0.546875 6.28125q0 0.71875 0.328125 1.390625q0.34375 0.65625 1.015625 1.03125q0.671875 0.359375 1.4375 0.359375q1.203125 0 1.984375 -0.765625q0.78125 -0.78125 0.78125 -1.96875q0 -1.203125 -0.8125 -1.984375q-0.796875 -0.796875 -2.0 -0.796875q-1.1875 0 -1.96875 0.78125q-0.765625 0.78125 -0.765625 1.953125zm17.512146 7.921875q-1.375 -1.75 -2.328125 -4.078125q-0.953125 -2.34375 -0.953125 -4.84375q0 -2.21875 0.703125 -4.234375q0.84375 -2.34375 2.578125 -4.671875l1.203125 0q-1.125 1.921875 -1.484375 2.75q-0.5625 1.28125 -0.890625 2.671875q-0.40625 1.734375 -0.40625 3.484375q0 4.46875 2.78125 8.921875l-1.203125 0zm8.853302 -4.0l-1.671875 0l0 -10.640625q-0.59375 0.578125 -1.578125 1.15625q-0.984375 0.5625 -1.765625 0.859375l0 -1.625q1.40625 -0.65625 2.453125 -1.59375q1.046875 -0.9375 1.484375 -1.8125l1.078125 0l0 13.65625zm5.641342 4.0l-1.1875 0q2.765625 -4.453125 2.765625 -8.921875q0 -1.734375 -0.390625 -3.453125q-0.328125 -1.390625 -0.890625 -2.671875q-0.359375 -0.84375 -1.484375 -2.78125l1.1875 0q1.75 2.328125 2.578125 4.671875q0.71875 2.015625 0.71875 4.234375q0 2.5 -0.96875 4.84375q-0.953125 2.328125 -2.328125 4.078125z" fill-rule="nonzero"></path><path fill="#000000" fill-opacity="0.0" d="m26.35433 302.98453l62.330704 0l0 29.669312l-62.330704 0z" fill-rule="nonzero"></path><path fill="#000000" d="m39.386513 320.84262l1.59375 -0.15625q0.203125 1.140625 0.78125 1.65625q0.578125 0.5 1.484375 0.5q0.765625 0 1.34375 -0.34375q0.578125 -0.359375 0.953125 -0.953125q0.375 -0.59375 0.625 -1.59375q0.25 -1.0 0.25 -2.03125q0 -0.109375 -0.015625 -0.34375q-0.5 0.796875 -1.375 1.296875q-0.859375 0.5 -1.875 0.5q-1.6875 0 -2.859375 -1.21875q-1.171875 -1.234375 -1.171875 -3.234375q0 -2.078125 1.21875 -3.328125q1.234375 -1.265625 3.0625 -1.265625q1.328125 0 2.421875 0.71875q1.109375 0.703125 1.671875 2.03125q0.578125 1.328125 0.578125 3.828125q0 2.609375 -0.578125 4.15625q-0.5625 1.546875 -1.6875 2.359375q-1.109375 0.796875 -2.609375 0.796875q-1.59375 0 -2.609375 -0.890625q-1.0 -0.890625 -1.203125 -2.484375zm6.828125 -6.0q0 -1.4375 -0.765625 -2.28125q-0.765625 -0.859375 -1.84375 -0.859375q-1.109375 0 -1.9375 0.921875q-0.828125 0.90625 -0.828125 2.34375q0 1.3125 0.78125 2.125q0.796875 0.796875 1.9375 0.796875q1.171875 0 1.90625 -0.796875q0.75 -0.8125 0.75 -2.25zm12.121521 13.140625q-1.375 -1.75 -2.328125 -4.078125q-0.953125 -2.34375 -0.953125 -4.84375q0 -2.21875 0.703125 -4.234375q0.84375 -2.34375 2.578125 -4.671875l1.203125 0q-1.125 1.921875 -1.484375 2.75q-0.5625 1.28125 -0.890625 2.671875q-0.40625 1.734375 -0.40625 3.484375q0 4.46875 2.78125 8.921875l-1.203125 0zm11.337677 -5.609375l0 1.609375l-8.984375 0q-0.015625 -0.609375 0.1875 -1.15625q0.34375 -0.921875 1.09375 -1.8125q0.765625 -0.890625 2.1875 -2.0625q2.21875 -1.8125 3.0 -2.875q0.78125 -1.0625 0.78125 -2.015625q0 -0.984375 -0.71875 -1.671875q-0.703125 -0.6875 -1.84375 -0.6875q-1.203125 0 -1.9375 0.734375q-0.71875 0.71875 -0.71875 2.0l-1.71875 -0.171875q0.171875 -1.921875 1.328125 -2.921875q1.15625 -1.015625 3.09375 -1.015625q1.953125 0 3.09375 1.09375q1.140625 1.078125 1.140625 2.6875q0 0.8125 -0.34375 1.609375q-0.328125 0.78125 -1.109375 1.65625q-0.765625 0.859375 -2.5625 2.390625q-1.5 1.265625 -1.9375 1.71875q-0.421875 0.4375 -0.703125 0.890625l6.671875 0zm3.1569672 5.609375l-1.1875 0q2.765625 -4.453125 2.765625 -8.921875q0 -1.734375 -0.390625 -3.453125q-0.328125 -1.390625 -0.890625 -2.671875q-0.359375 -0.84375 -1.484375 -2.78125l1.1875 0q1.75 2.328125 2.578125 4.671875q0.71875 2.015625 0.71875 4.234375q0 2.5 -0.96875 4.84375q-0.953125 2.328125 -2.328125 4.078125z" fill-rule="nonzero"></path><path fill="#000000" fill-opacity="0.0" d="m17.188976 229.89694l80.66142 0l0 29.669281l-80.66142 0z" fill-rule="nonzero"></path><path fill="#000000" d="m40.229904 250.89565l-1.671875 0l0 -10.640625q-0.59375 0.578125 -1.578125 1.15625q-0.984375 0.5625 -1.765625 0.859375l0 -1.625q1.40625 -0.65625 2.453125 -1.59375q1.046875 -0.9375 1.484375 -1.8125l1.078125 0l0 13.65625zm4.078842 -6.703125q0 -2.421875 0.5 -3.890625q0.5 -1.46875 1.46875 -2.265625q0.984375 -0.796875 2.46875 -0.796875q1.09375 0 1.921875 0.4375q0.828125 0.4375 1.359375 1.28125q0.546875 0.828125 0.84375 2.015625q0.3125 1.1875 0.3125 3.21875q0 2.390625 -0.5 3.859375q-0.484375 1.46875 -1.46875 2.28125q-0.96875 0.796875 -2.46875 0.796875q-1.96875 0 -3.078125 -1.40625q-1.359375 -1.703125 -1.359375 -5.53125zm1.71875 0q0 3.34375 0.78125 4.453125q0.796875 1.109375 1.9375 1.109375q1.15625 0 1.9375 -1.109375q0.78125 -1.125 0.78125 -4.453125q0 -3.359375 -0.78125 -4.46875q-0.78125 -1.109375 -1.953125 -1.109375q-1.15625 0 -1.828125 0.984375q-0.875 1.234375 -0.875 4.59375zm17.496521 10.703125q-1.375 -1.75 -2.328125 -4.078125q-0.953125 -2.34375 -0.953125 -4.84375q0 -2.21875 0.703125 -4.234375q0.84375 -2.34375 2.578125 -4.671875l1.203125 0q-1.125 1.921875 -1.484375 2.75q-0.5625 1.28125 -0.890625 2.671875q-0.40625 1.734375 -0.40625 3.484375q0 4.46875 2.78125 8.921875l-1.203125 0zm2.572052 -7.59375l1.671875 -0.21875q0.28125 1.421875 0.96875 2.046875q0.703125 0.625 1.6875 0.625q1.1875 0 2.0 -0.8125q0.8125 -0.828125 0.8125 -2.03125q0 -1.140625 -0.765625 -1.890625q-0.75 -0.75 -1.90625 -0.75q-0.46875 0 -1.171875 0.1875l0.1875 -1.46875q0.15625 0.015625 0.265625 0.015625q1.0625 0 1.90625 -0.546875q0.859375 -0.5625 0.859375 -1.71875q0 -0.921875 -0.625 -1.515625q-0.609375 -0.609375 -1.59375 -0.609375q-0.96875 0 -1.625 0.609375q-0.640625 0.609375 -0.828125 1.84375l-1.671875 -0.296875q0.296875 -1.6875 1.375 -2.609375q1.09375 -0.921875 2.71875 -0.921875q1.109375 0 2.046875 0.484375q0.9375 0.46875 1.421875 1.296875q0.5 0.828125 0.5 1.75q0 0.890625 -0.46875 1.609375q-0.46875 0.71875 -1.40625 1.15625q1.21875 0.265625 1.875 1.15625q0.671875 0.875 0.671875 2.1875q0 1.78125 -1.296875 3.015625q-1.296875 1.234375 -3.28125 1.234375q-1.796875 0 -2.984375 -1.0625q-1.171875 -1.0625 -1.34375 -2.765625zm11.922592 7.59375l-1.1875 0q2.765625 -4.453125 2.765625 -8.921875q0 -1.734375 -0.390625 -3.453125q-0.328125 -1.390625 -0.890625 -2.671875q-0.359375 -0.84375 -1.484375 -2.78125l1.1875 0q1.75 2.328125 2.578125 4.671875q0.71875 2.015625 0.71875 4.234375q0 2.5 -0.96875 4.84375q-0.953125 2.328125 -2.328125 4.078125z" fill-rule="nonzero"></path><path fill="#000000" fill-opacity="0.0" d="m17.188976 156.80934l80.66142 0l0 29.669296l-80.66142 0z" fill-rule="nonzero"></path><path fill="#000000" d="m40.229904 177.80804l-1.671875 0l0 -10.640625q-0.59375 0.578125 -1.578125 1.15625q-0.984375 0.5625 -1.765625 0.859375l0 -1.625q1.40625 -0.65625 2.453125 -1.59375q1.046875 -0.9375 1.484375 -1.8125l1.078125 0l0 13.65625zm10.375717 0l-1.671875 0l0 -10.640625q-0.59375 0.578125 -1.578125 1.15625q-0.984375 0.5625 -1.765625 0.859375l0 -1.625q1.40625 -0.65625 2.453125 -1.59375q1.046875 -0.9375 1.484375 -1.8125l1.078125 0l0 13.65625zm12.918396 4.0q-1.375 -1.75 -2.328125 -4.078125q-0.953125 -2.34375 -0.953125 -4.84375q0 -2.21875 0.703125 -4.234375q0.84375 -2.34375 2.578125 -4.671875l1.203125 0q-1.125 1.921875 -1.484375 2.75q-0.5625 1.28125 -0.890625 2.671875q-0.40625 1.734375 -0.40625 3.484375q0 4.46875 2.78125 8.921875l-1.203125 0zm7.915802 -4.0l0 -3.25l-5.90625 0l0 -1.53125l6.21875 -8.8125l1.359375 0l0 8.8125l1.84375 0l0 1.53125l-1.84375 0l0 3.25l-1.671875 0zm0 -4.78125l0 -6.140625l-4.25 6.140625l4.25 0zm6.578842 8.78125l-1.1875 0q2.765625 -4.453125 2.765625 -8.921875q0 -1.734375 -0.390625 -3.453125q-0.328125 -1.390625 -0.890625 -2.671875q-0.359375 -0.84375 -1.484375 -2.78125l1.1875 0q1.75 2.328125 2.578125 4.671875q0.71875 2.015625 0.71875 4.234375q0 2.5 -0.96875 4.84375q-0.953125 2.328125 -2.328125 4.078125z" fill-rule="nonzero"></path><path fill="#000000" fill-opacity="0.0" d="m17.188976 83.72175l80.66142 0l0 29.669289l-80.66142 0z" fill-rule="nonzero"></path><path fill="#000000" d="m40.229904 104.72046l-1.671875 0l0 -10.640625q-0.59375 0.578125 -1.578125 1.15625q-0.984375 0.5625 -1.765625 0.859375l0 -1.625q1.40625 -0.65625 2.453125 -1.59375q1.046875 -0.9375 1.484375 -1.8125l1.078125 0l0 13.65625zm12.860092 -1.609375l0 1.609375l-8.984375 0q-0.015625 -0.609375 0.1875 -1.15625q0.34375 -0.921875 1.09375 -1.8125q0.765625 -0.890625 2.1875 -2.0625q2.21875 -1.8125 3.0 -2.875q0.78125 -1.0625 0.78125 -2.015625q0 -0.984375 -0.71875 -1.671875q-0.703125 -0.6875 -1.84375 -0.6875q-1.203125 0 -1.9375 0.734375q-0.71875 0.71875 -0.71875 2.0l-1.71875 -0.171875q0.171875 -1.921875 1.328125 -2.921875q1.15625 -1.015625 3.09375 -1.015625q1.953125 0 3.09375 1.09375q1.140625 1.078125 1.140625 2.6875q0 0.8125 -0.34375 1.609375q-0.328125 0.78125 -1.109375 1.65625q-0.765625 0.859375 -2.5625 2.390625q-1.5 1.265625 -1.9375 1.71875q-0.421875 0.4375 -0.703125 0.890625l6.671875 0zm10.434021 5.609375q-1.375 -1.75 -2.328125 -4.078125q-0.953125 -2.34375 -0.953125 -4.84375q0 -2.21875 0.703125 -4.234375q0.84375 -2.34375 2.578125 -4.671875l1.203125 0q-1.125 1.921875 -1.484375 2.75q-0.5625 1.28125 -0.890625 2.671875q-0.40625 1.734375 -0.40625 3.484375q0 4.46875 2.78125 8.921875l-1.203125 0zm2.556427 -7.5625l1.765625 -0.15625q0.1875 1.28125 0.890625 1.9375q0.71875 0.640625 1.71875 0.640625q1.203125 0 2.03125 -0.90625q0.84375 -0.90625 0.84375 -2.421875q0 -1.421875 -0.8125 -2.25q-0.796875 -0.828125 -2.09375 -0.828125q-0.796875 0 -1.453125 0.375q-0.640625 0.359375 -1.015625 0.953125l-1.578125 -0.203125l1.328125 -7.0l6.765625 0l0 1.609375l-5.4375 0l-0.734375 3.640625q1.234375 -0.84375 2.578125 -0.84375q1.78125 0 3.0 1.234375q1.234375 1.234375 1.234375 3.171875q0 1.84375 -1.078125 3.1875q-1.3125 1.65625 -3.578125 1.65625q-1.859375 0 -3.03125 -1.03125q-1.171875 -1.046875 -1.34375 -2.765625zm11.938217 7.5625l-1.1875 0q2.765625 -4.453125 2.765625 -8.921875q0 -1.734375 -0.390625 -3.453125q-0.328125 -1.390625 -0.890625 -2.671875q-0.359375 -0.84375 -1.484375 -2.78125l1.1875 0q1.75 2.328125 2.578125 4.671875q0.71875 2.015625 0.71875 4.234375q0 2.5 -0.96875 4.84375q-0.953125 2.328125 -2.328125 4.078125z" fill-rule="nonzero"></path><path fill="#000000" fill-opacity="0.0" d="m583.60895 88.19418l0.4724121 -37.795273" fill-rule="nonzero"></path><path stroke="#000000" stroke-width="2.0" stroke-linejoin="round" stroke-linecap="butt" d="m583.60895 88.19418l0.32244873 -25.796211" fill-rule="evenodd"></path><path fill="#000000" stroke="#000000" stroke-width="2.0" stroke-linecap="butt" d="m587.23456 62.439262l-3.1897583 -9.1167755l-3.416626 9.034195z" fill-rule="evenodd"></path><path fill="#000000" fill-opacity="0.0" d="m27.223097 20.72962l80.661415 0l0 29.66929l-80.661415 0z" fill-rule="nonzero"></path><path fill="#000000" d="m50.264027 41.72833l-1.671875 0l0 -10.640625q-0.59375 0.578125 -1.578125 1.15625q-0.984375 0.5625 -1.765625 0.859375l0 -1.625q1.40625 -0.65625 2.453125 -1.59375q1.046875 -0.9375 1.484375 -1.8125l1.078125 0l0 13.65625zm4.094467 -3.59375l1.671875 -0.21875q0.28125 1.421875 0.96875 2.046875q0.703125 0.625 1.6875 0.625q1.1875 0 2.0 -0.8125q0.8125 -0.828125 0.8125 -2.03125q0 -1.140625 -0.765625 -1.890625q-0.75 -0.75 -1.90625 -0.75q-0.46875 0 -1.171875 0.1875l0.1875 -1.46875q0.15625 0.015625 0.265625 0.015625q1.0625 0 1.90625 -0.546875q0.859375 -0.5625 0.859375 -1.71875q0 -0.921875 -0.625 -1.515625q-0.609375 -0.609375 -1.59375 -0.609375q-0.96875 0 -1.625 0.609375q-0.640625 0.609375 -0.828125 1.84375l-1.671875 -0.296875q0.296875 -1.6875 1.375 -2.609375q1.09375 -0.921875 2.71875 -0.921875q1.109375 0 2.046875 0.484375q0.9375 0.46875 1.421875 1.296875q0.5 0.828125 0.5 1.75q0 0.890625 -0.46875 1.609375q-0.46875 0.71875 -1.40625 1.15625q1.21875 0.265625 1.875 1.15625q0.671875 0.875 0.671875 2.1875q0 1.78125 -1.296875 3.015625q-1.296875 1.234375 -3.28125 1.234375q-1.796875 0 -2.984375 -1.0625q-1.171875 -1.0625 -1.34375 -2.765625zm19.199642 7.59375q-1.375 -1.75 -2.328125 -4.078125q-0.953125 -2.34375 -0.953125 -4.84375q0 -2.21875 0.703125 -4.234375q0.84375 -2.34375 2.578125 -4.671875l1.203125 0q-1.125 1.921875 -1.484375 2.75q-0.5625 1.28125 -0.890625 2.671875q-0.40625 1.734375 -0.40625 3.484375q0 4.46875 2.78125 8.921875l-1.203125 0zm11.228302 -14.265625l-1.65625 0.125q-0.21875 -0.984375 -0.640625 -1.421875q-0.671875 -0.71875 -1.65625 -0.71875q-0.8125 0 -1.40625 0.4375q-0.796875 0.578125 -1.25 1.6875q-0.453125 1.09375 -0.46875 3.140625q0.609375 -0.921875 1.46875 -1.359375q0.875 -0.453125 1.828125 -0.453125q1.671875 0 2.84375 1.234375q1.171875 1.234375 1.171875 3.171875q0 1.28125 -0.546875 2.390625q-0.546875 1.09375 -1.515625 1.6875q-0.96875 0.578125 -2.1875 0.578125q-2.09375 0 -3.40625 -1.53125q-1.3125 -1.546875 -1.3125 -5.0625q0 -3.953125 1.453125 -5.734375q1.265625 -1.5625 3.421875 -1.5625q1.609375 0 2.625 0.90625q1.03125 0.890625 1.234375 2.484375zm-6.8125 5.859375q0 0.859375 0.359375 1.65625q0.375 0.78125 1.03125 1.203125q0.65625 0.40625 1.375 0.40625q1.0625 0 1.8125 -0.84375q0.765625 -0.859375 0.765625 -2.328125q0 -1.40625 -0.75 -2.21875q-0.75 -0.8125 -1.890625 -0.8125q-1.125 0 -1.921875 0.8125q-0.78125 0.8125 -0.78125 2.125zm10.078842 8.40625l-1.1875 0q2.765625 -4.453125 2.765625 -8.921875q0 -1.734375 -0.390625 -3.453125q-0.328125 -1.390625 -0.890625 -2.671875q-0.359375 -0.84375 -1.484375 -2.78125l1.1875 0q1.75 2.328125 2.578125 4.671875q0.71875 2.015625 0.71875 4.234375q0 2.5 -0.96875 4.84375q-0.953125 2.328125 -2.328125 4.078125z" fill-rule="nonzero"></path><path fill="#000000" fill-opacity="0.0" d="m248.90814 362.6719l50.393707 0l0 132.8504l-50.393707 0z" fill-rule="nonzero"></path><path stroke="#ff0000" stroke-width="2.0" stroke-linejoin="round" stroke-linecap="butt" d="m248.90814 362.6719l50.393707 0l0 132.8504l-50.393707 0z" fill-rule="nonzero"></path><path fill="#000000" fill-opacity="0.0" d="m320.67978 371.07086l130.55118 0l0 44.283478l-130.55118 0z" fill-rule="nonzero"></path><path stroke="#ff0000" stroke-width="2.0" stroke-linejoin="round" stroke-linecap="butt" d="m320.67978 371.07086l130.55118 0l0 44.283478l-130.55118 0z" fill-rule="nonzero"></path></g></svg>

