<?xml version="1.0" standalone="no"?>
<!DOCTYPE svg PUBLIC "-//W3C//DTD SVG 1.1//EN"
  "http://www.w3.org/Graphics/SVG/1.1/DTD/svg11.dtd">
<svg width="1000" height="700" version="1.1"
     xmlns="http://www.w3.org/2000/svg"
     xmlns:xlink="http://www.w3.org/1999/xlink">

  <rect x="0" y="0" width="1000" height="700" fill="black"/>

  <defs>
    <g id="set of 7 circles">
      <circle cx="0" cy="300" r="5"/>
      <circle cx="50" cy="250" r="5"/>
      <circle cx="100" cy="200" r="5"/>
      <circle cx="150" cy="150" r="5"/>
      <circle cx="200" cy="100" r="5"/>
      <circle cx="250" cy="50" r="5"/>
      <circle cx="300" cy="0" r="5"/>
    </g>
    <g id="set of 7 rects">
      <rect x="0" y="300" width="50" height="50"/>
      <rect x="50" y="250" width="50" height="50"/>
      <rect x="100" y="200" width="50" height="50"/>
      <rect x="150" y="150" width="50" height="50"/>
      <rect x="200" y="100" width="50" height="50"/>
      <rect x="250" y="50" width="50" height="50"/>
      <rect x="300" y="0" width="50" height="50"/>
    </g>
    <rect id="end-prohibited" x="0" y="0" width="350" height="50"
          fill="rgb(25%,25%,25%)"/>
    <rect id="start-prohibited" x="0" y="0" width="50" height="450"
          fill="rgb(25%,25%,25%)"/>
    <marker id="Triangle"
      viewBox="0 0 10 10" refX="0" refY="5"
      markerUnits="strokeWidth"
      markerWidth="4"
      markerHeight="4"
      fill="white"
      orient="auto">
      <path d="M 0 0 L 10 5 L 0 10 z" />
    </marker>

    <rect id="rect-up" x="16" y="0" width="16" height="16"/>
    <rect id="rect-right" x="32" y="16" width="16" height="16"/>
    <rect id="rect-up-and-right" x="32" y="0" width="16" height="16"/>
    <rect id="rect-full" x="0" y="0" width="50" height="50"/>
  </defs>

  <use x="0" y="350" xlink:href="#end-prohibited"/>
  <use x="0" y="250" xlink:href="#end-prohibited"/>
  <use x="0" y="100" xlink:href="#end-prohibited"/>
  <use x="0" y="0" xlink:href="#end-prohibited"/>

  <use x="0" y="0" xlink:href="#start-prohibited"/>
  <use x="150" y="0" xlink:href="#start-prohibited"/>
  <use x="250" y="0" xlink:href="#start-prohibited"/>

  <use x="0" y="300" xlink:href="#rect-right" fill="yellow"/>
  <use x="50" y="250" xlink:href="#rect-up" fill="yellow"/>
  <use x="100" y="200" xlink:href="#rect-full" fill="yellow"/>
  <use x="150" y="150" xlink:href="#rect-right" fill="yellow"/>
  <use x="200" y="100" xlink:href="#rect-up" fill="yellow"/>
  <use x="250" y="50" xlink:href="#rect-right" fill="yellow"/>
  <use x="300" y="0" xlink:href="#rect-up" fill="yellow"/>

  <use x="0" y="350" xlink:href="#rect-up-and-right" fill="orange"/>
  <use x="50" y="300" xlink:href="#rect-full" fill="orange"/>
  <use x="100" y="250" xlink:href="#rect-up" fill="orange"/>
  <use x="150" y="200" xlink:href="#rect-right" fill="orange"/>
  <use x="200" y="150" xlink:href="#rect-full" fill="orange"/>
  <use x="250" y="100" xlink:href="#rect-up-and-right" fill="orange"/>
  <use x="300" y="50" xlink:href="#rect-full" fill="orange"/>

  <use x="0" y="400" xlink:href="#rect-right" fill="red"/>
  <use x="50" y="350" xlink:href="#rect-up" fill="red"/>
  <use x="100" y="300" xlink:href="#rect-full" fill="red"/>
  <use x="150" y="250" xlink:href="#rect-up-and-right" fill="red"/>
  <use x="200" y="200" xlink:href="#rect-full" fill="red"/>
  <use x="250" y="150" xlink:href="#rect-right" fill="red"/>
  <use x="300" y="100" xlink:href="#rect-up" fill="red"/>


  <!--use x="25" y="25" xlink:href="#set of 7 rects" fill="yellow"/-->
  <!--use x="25" y="75" xlink:href="#set of 7 rects" fill="orange"/-->
  <!--use x="25" y="125" xlink:href="#set of 7 rects" fill="red"/-->

  <!--line x1="50" y1="50" x2="100" y2="100"
        stroke="white" stroke-width="2" marker-end="url(#Triangle)"/-->

</svg>
