<?xml version="1.0" encoding="UTF-8" standalone="no"?>
<!DOCTYPE svg PUBLIC "-//W3C//DTD SVG 1.1//EN"
 "http://www.w3.org/Graphics/SVG/1.1/DTD/svg11.dtd">
<!-- Generated by graphviz version 2.38.0 (20140413.2041)
 -->
<!-- Title: gift_exchange Pages: 1 -->
<svg width="319pt" height="266pt"
 viewBox="0.00 0.00 318.67 266.29" xmlns="http://www.w3.org/2000/svg" xmlns:xlink="http://www.w3.org/1999/xlink">
<g id="graph0" class="graph" transform="scale(1 1) rotate(0) translate(4 262.287)">
<title>gift_exchange</title>
<polygon fill="white" stroke="none" points="-4,4 -4,-262.287 314.675,-262.287 314.675,4 -4,4"/>
<!-- Rose -->
<g id="node1" class="node"><title>Rose</title>
<ellipse fill="none" stroke="black" cx="219.506" cy="-18" rx="28.6953" ry="18"/>
<text text-anchor="middle" x="219.506" y="-14.3" font-family="Times,serif" font-size="14.00">Rose</text>
</g>
<!-- Zach -->
<g id="node2" class="node"><title>Zach</title>
<ellipse fill="none" stroke="black" cx="91.1686" cy="-18" rx="28.6953" ry="18"/>
<text text-anchor="middle" x="91.1686" y="-14.3" font-family="Times,serif" font-size="14.00">Zach</text>
</g>
<!-- Rose&#45;&gt;Zach -->
<g id="edge1" class="edge"><title>Rose&#45;&gt;Zach</title>
<path fill="none" stroke="black" d="M190.705,-18C172.788,-18 149.523,-18 129.991,-18"/>
<polygon fill="black" stroke="black" points="129.874,-14.4999 119.874,-18 129.874,-21.4999 129.874,-14.4999"/>
</g>
<!-- Eli -->
<g id="node3" class="node"><title>Eli</title>
<ellipse fill="none" stroke="black" cx="27" cy="-129.143" rx="27" ry="18"/>
<text text-anchor="middle" x="27" y="-125.443" font-family="Times,serif" font-size="14.00">Eli</text>
</g>
<!-- Zach&#45;&gt;Eli -->
<g id="edge2" class="edge"><title>Zach&#45;&gt;Eli</title>
<path fill="none" stroke="black" d="M81.1423,-35.3661C70.5797,-53.661 53.8353,-82.6632 41.7631,-103.573"/>
<polygon fill="black" stroke="black" points="38.7148,-101.853 36.7458,-112.263 44.777,-105.353 38.7148,-101.853"/>
</g>
<!-- Jack -->
<g id="node4" class="node"><title>Jack</title>
<ellipse fill="none" stroke="black" cx="91.1686" cy="-240.287" rx="27" ry="18"/>
<text text-anchor="middle" x="91.1686" y="-236.587" font-family="Times,serif" font-size="14.00">Jack</text>
</g>
<!-- Eli&#45;&gt;Jack -->
<g id="edge3" class="edge"><title>Eli&#45;&gt;Jack</title>
<path fill="none" stroke="black" d="M36.7458,-146.024C47.2519,-164.221 64.1021,-193.406 76.2717,-214.484"/>
<polygon fill="black" stroke="black" points="73.2999,-216.337 81.3311,-223.248 79.3621,-212.837 73.2999,-216.337"/>
</g>
<!-- Tallie -->
<g id="node5" class="node"><title>Tallie</title>
<ellipse fill="none" stroke="black" cx="219.506" cy="-240.287" rx="31.3957" ry="18"/>
<text text-anchor="middle" x="219.506" y="-236.587" font-family="Times,serif" font-size="14.00">Tallie</text>
</g>
<!-- Jack&#45;&gt;Tallie -->
<g id="edge4" class="edge"><title>Jack&#45;&gt;Tallie</title>
<path fill="none" stroke="black" d="M118.386,-240.287C135.724,-240.287 158.523,-240.287 178.083,-240.287"/>
<polygon fill="black" stroke="black" points="178.265,-243.787 188.265,-240.287 178.265,-236.787 178.265,-243.787"/>
</g>
<!-- Ben -->
<g id="node6" class="node"><title>Ben</title>
<ellipse fill="none" stroke="black" cx="283.675" cy="-129.143" rx="27" ry="18"/>
<text text-anchor="middle" x="283.675" y="-125.443" font-family="Times,serif" font-size="14.00">Ben</text>
</g>
<!-- Tallie&#45;&gt;Ben -->
<g id="edge5" class="edge"><title>Tallie&#45;&gt;Ben</title>
<path fill="none" stroke="black" d="M229.532,-222.921C240.095,-204.626 256.839,-175.623 268.911,-154.714"/>
<polygon fill="black" stroke="black" points="271.96,-156.434 273.929,-146.024 265.898,-152.934 271.96,-156.434"/>
</g>
<!-- Ben&#45;&gt;Rose -->
<g id="edge6" class="edge"><title>Ben&#45;&gt;Rose</title>
<path fill="none" stroke="black" d="M273.929,-112.263C263.423,-94.066 246.572,-64.8806 234.403,-43.8023"/>
<polygon fill="black" stroke="black" points="237.375,-41.9494 229.343,-35.0391 231.312,-45.4494 237.375,-41.9494"/>
</g>
</g>
</svg>
