<?xml version="1.0" encoding="UTF-8" standalone="no"?>
<!DOCTYPE svg PUBLIC "-//W3C//DTD SVG 1.1//EN"
 "http://www.w3.org/Graphics/SVG/1.1/DTD/svg11.dtd">
<!-- Generated by graphviz version 2.38.0 (20140413.2041)
 -->
<!-- Title: gift_exchange Pages: 1 -->
<svg width="350pt" height="290pt"
 viewBox="0.00 0.00 349.83 289.94" xmlns="http://www.w3.org/2000/svg" xmlns:xlink="http://www.w3.org/1999/xlink">
<g id="graph0" class="graph" transform="scale(1 1) rotate(0) translate(4 285.937)">
<title>gift_exchange</title>
<polygon fill="white" stroke="none" points="-4,4 -4,-285.937 345.828,-285.937 345.828,4 -4,4"/>
<!-- Sarah -->
<g id="node1" class="node"><title>Sarah</title>
<ellipse fill="none" stroke="black" cx="240.285" cy="-18" rx="30.5947" ry="18"/>
<text text-anchor="middle" x="240.285" y="-14.3" font-family="Times,serif" font-size="14.00">Sarah</text>
</g>
<!-- Dan -->
<g id="node2" class="node"><title>Dan</title>
<ellipse fill="none" stroke="black" cx="98.2933" cy="-18" rx="27" ry="18"/>
<text text-anchor="middle" x="98.2933" y="-14.3" font-family="Times,serif" font-size="14.00">Dan</text>
</g>
<!-- Sarah&#45;&gt;Dan -->
<g id="edge1" class="edge"><title>Sarah&#45;&gt;Dan</title>
<path fill="none" stroke="black" d="M209.475,-18C187.831,-18 158.757,-18 135.769,-18"/>
<polygon fill="black" stroke="black" points="135.684,-14.4999 125.684,-18 135.684,-21.4999 135.684,-14.4999"/>
</g>
<!-- Julie -->
<g id="node3" class="node"><title>Julie</title>
<ellipse fill="none" stroke="black" cx="27.2976" cy="-140.968" rx="27.0966" ry="18"/>
<text text-anchor="middle" x="27.2976" y="-137.268" font-family="Times,serif" font-size="14.00">Julie</text>
</g>
<!-- Dan&#45;&gt;Julie -->
<g id="edge2" class="edge"><title>Dan&#45;&gt;Julie</title>
<path fill="none" stroke="black" d="M88.5706,-34.8404C76.6353,-55.5129 56.2655,-90.7943 42.3131,-114.961"/>
<polygon fill="black" stroke="black" points="39.0997,-113.526 37.1308,-123.937 45.1619,-117.026 39.0997,-113.526"/>
</g>
<!-- Ben -->
<g id="node4" class="node"><title>Ben</title>
<ellipse fill="none" stroke="black" cx="98.2933" cy="-263.937" rx="27" ry="18"/>
<text text-anchor="middle" x="98.2933" y="-260.237" font-family="Times,serif" font-size="14.00">Ben</text>
</g>
<!-- Julie&#45;&gt;Ben -->
<g id="edge3" class="edge"><title>Julie&#45;&gt;Ben</title>
<path fill="none" stroke="black" d="M37.0204,-157.809C48.9557,-178.481 69.3254,-213.763 83.2778,-237.929"/>
<polygon fill="black" stroke="black" points="80.429,-239.995 88.4602,-246.905 86.4912,-236.495 80.429,-239.995"/>
</g>
<!-- Melissa -->
<g id="node5" class="node"><title>Melissa</title>
<ellipse fill="none" stroke="black" cx="240.285" cy="-263.937" rx="38.1938" ry="18"/>
<text text-anchor="middle" x="240.285" y="-260.237" font-family="Times,serif" font-size="14.00">Melissa</text>
</g>
<!-- Ben&#45;&gt;Melissa -->
<g id="edge4" class="edge"><title>Ben&#45;&gt;Melissa</title>
<path fill="none" stroke="black" d="M125.335,-263.937C144.021,-263.937 169.403,-263.937 191.564,-263.937"/>
<polygon fill="black" stroke="black" points="191.811,-267.437 201.811,-263.937 191.811,-260.437 191.811,-267.437"/>
</g>
<!-- Steve -->
<g id="node6" class="node"><title>Steve</title>
<ellipse fill="none" stroke="black" cx="311.281" cy="-140.968" rx="30.5947" ry="18"/>
<text text-anchor="middle" x="311.281" y="-137.268" font-family="Times,serif" font-size="14.00">Steve</text>
</g>
<!-- Melissa&#45;&gt;Steve -->
<g id="edge5" class="edge"><title>Melissa&#45;&gt;Steve</title>
<path fill="none" stroke="black" d="M250.457,-246.318C262.439,-225.564 282.455,-190.896 296.233,-167.032"/>
<polygon fill="black" stroke="black" points="299.388,-168.568 301.356,-158.157 293.325,-165.068 299.388,-168.568"/>
</g>
<!-- Steve&#45;&gt;Sarah -->
<g id="edge6" class="edge"><title>Steve&#45;&gt;Sarah</title>
<path fill="none" stroke="black" d="M301.409,-123.87C289.502,-103.246 269.358,-68.3557 255.468,-44.2984"/>
<polygon fill="black" stroke="black" points="258.333,-42.2597 250.302,-35.3494 252.271,-45.7597 258.333,-42.2597"/>
</g>
</g>
</svg>
